<svg xmlns:xlink="http://www.w3.org/1999/xlink" data-v-00c3a384="" clip-rule="evenodd" fill-rule="evenodd" stroke-linejoin="round" stroke-miterlimit="2" viewBox="0 0 400 280" xmlns="http://www.w3.org/2000/svg" svg-inline="" role="presentation" focusable="false" tabindex="-1" width="400"  height="280" ><path data-v-00c3a384="" d="M0 .004h400v280H0z" fill="#1A202C"></path><path data-v-00c3a384="" d="M120.04 34.19a4.165 4.165 0 00-4.162-4.157H63.826a4.165 4.165 0 00-4.162 4.158v.078a4.165 4.165 0 004.162 4.158h52.052a4.165 4.165 0 004.162-4.158z" fill="#E2E8F0"></path><g data-v-00c3a384="" fill="#A0AEC0"><path data-v-00c3a384="" d="M137.584 76.164a4.165 4.165 0 00-4.163-4.158H95.305a4.165 4.165 0 00-4.162 4.158v.078a4.165 4.165 0 004.162 4.158h38.116a4.165 4.165 0 004.163-4.158zM137.584 139.124a4.165 4.165 0 00-4.163-4.158H95.305a4.165 4.165 0 00-4.162 4.158v.078a4.165 4.165 0 004.162 4.158h38.116a4.165 4.165 0 004.163-4.158zM136.723 223.07a4.165 4.165 0 00-4.162-4.158H95.306a4.165 4.165 0 00-4.162 4.158v.078a4.165 4.165 0 004.162 4.158h37.255a4.165 4.165 0 004.162-4.158zM105.243 244.056a4.165 4.165 0 00-4.162-4.158H63.826a4.165 4.165 0 00-4.162 4.158v.078a4.165 4.165 0 004.162 4.158h37.255a4.165 4.165 0 004.162-4.158zM169.063 118.208a4.165 4.165 0 00-4.162-4.158h-38.116a4.165 4.165 0 00-4.162 4.158v.079a4.165 4.165 0 004.162 4.157H164.9a4.165 4.165 0 004.162-4.157zM169.063 160.181a4.165 4.165 0 00-4.162-4.158h-38.116a4.165 4.165 0 00-4.162 4.158v.079a4.165 4.165 0 004.162 4.157H164.9a4.165 4.165 0 004.162-4.157zM169.063 202.154a4.165 4.165 0 00-4.162-4.157h-38.116a4.165 4.165 0 00-4.162 4.157v.079a4.165 4.165 0 004.162 4.158H164.9a4.165 4.165 0 004.162-4.158z" fill="#A0AEC0"></path></g><path data-v-00c3a384="" d="M245.53 118.173a4.166 4.166 0 00-4.162-4.158h-63.143a4.165 4.165 0 00-4.162 4.158v.078a4.165 4.165 0 004.162 4.158h63.143a4.166 4.166 0 004.162-4.158zM245.53 160.205a4.166 4.166 0 00-4.162-4.158h-63.143a4.165 4.165 0 00-4.162 4.158v.078a4.165 4.165 0 004.162 4.158h63.143a4.166 4.166 0 004.162-4.158zM245.53 202.154a4.166 4.166 0 00-4.162-4.157h-63.143a4.165 4.165 0 00-4.162 4.157v.079a4.165 4.165 0 004.162 4.158h63.143a4.166 4.166 0 004.162-4.158z" fill="#FFFFFF"></path><g data-v-00c3a384="" fill="#A0AEC0"><path data-v-00c3a384="" d="M297.75 118.244a4.166 4.166 0 00-4.162-4.158h-38.896a4.165 4.165 0 00-4.162 4.158v.078a4.165 4.165 0 004.162 4.158h38.896a4.166 4.166 0 004.162-4.158zM297.75 160.169a4.166 4.166 0 00-4.162-4.158h-38.896a4.165 4.165 0 00-4.162 4.158v.078a4.165 4.165 0 004.162 4.158h38.896a4.166 4.166 0 004.162-4.158zM297.75 202.19a4.166 4.166 0 00-4.162-4.158h-38.896a4.165 4.165 0 00-4.162 4.158v.078a4.165 4.165 0 004.162 4.158h38.896a4.166 4.166 0 004.162-4.158zM106.104 55.249a4.165 4.165 0 00-4.162-4.158H63.825a4.165 4.165 0 00-4.162 4.158v.078a4.165 4.165 0 004.162 4.158h38.117a4.165 4.165 0 004.162-4.158z" fill="#A0AEC0"></path></g><path data-v-00c3a384="" d="M149.311 55.284a4.165 4.165 0 00-4.162-4.158h-29.884a4.165 4.165 0 00-4.161 4.158v.078a4.165 4.165 0 004.161 4.158h29.884a4.165 4.165 0 004.162-4.158z" fill="#E2E8F0"></path><path data-v-00c3a384="" d="M172.404 55.32a4.165 4.165 0 00-4.162-4.158h-9.769a4.165 4.165 0 00-4.161 4.158v.078a4.165 4.165 0 004.161 4.158h9.77a4.165 4.165 0 004.161-4.158z" fill="#FFFFFF"></path><path data-v-00c3a384="" d="M202.095 55.19a4.165 4.165 0 00-4.162-4.157h-16.367a4.165 4.165 0 00-4.161 4.158v.078a4.165 4.165 0 004.161 4.158h16.367a4.165 4.165 0 004.162-4.158z" fill="#EEEEEE"></path><path data-v-00c3a384="" d="M225.267 55.19a4.165 4.165 0 00-4.162-4.157h-9.85a4.165 4.165 0 00-4.161 4.158v.078a4.165 4.165 0 004.161 4.158h9.85a4.165 4.165 0 004.162-4.158zM169.513 97.28a4.165 4.165 0 00-4.162-4.159h-38.117a4.165 4.165 0 00-4.16 4.158v.079a4.165 4.165 0 004.16 4.157h38.117a4.165 4.165 0 004.162-4.157z" fill="#A0AEC0"></path><path data-v-00c3a384="" d="M212.72 97.315a4.165 4.165 0 00-4.16-4.158h-29.885a4.165 4.165 0 00-4.162 4.158v.078a4.165 4.165 0 004.162 4.158h29.884a4.165 4.165 0 004.162-4.158z" fill="#E2E8F0"></path><path data-v-00c3a384="" d="M235.814 97.35a4.165 4.165 0 00-4.162-4.158h-9.769a4.165 4.165 0 00-4.162 4.158v.079a4.165 4.165 0 004.162 4.157h9.77a4.165 4.165 0 004.16-4.157z" fill="#FFFFFF"></path><path data-v-00c3a384="" d="M265.505 97.221a4.165 4.165 0 00-4.162-4.157h-16.367a4.165 4.165 0 00-4.161 4.157v.079a4.165 4.165 0 004.161 4.158h16.367a4.165 4.165 0 004.162-4.158z" fill="#EEEEEE"></path><path data-v-00c3a384="" d="M288.676 97.221a4.165 4.165 0 00-4.161-4.157h-9.85a4.165 4.165 0 00-4.162 4.157v.079a4.165 4.165 0 004.162 4.158h9.85a4.165 4.165 0 004.161-4.158zM169.104 181.249a4.165 4.165 0 00-4.162-4.158h-38.117a4.165 4.165 0 00-4.162 4.158v.078a4.165 4.165 0 004.162 4.158h38.117a4.165 4.165 0 004.162-4.158z" fill="#A0AEC0"></path><path data-v-00c3a384="" d="M212.311 181.284a4.165 4.165 0 00-4.162-4.158h-29.884a4.165 4.165 0 00-4.161 4.158v.078a4.165 4.165 0 004.161 4.158h29.884a4.165 4.165 0 004.162-4.158z" fill="#E2E8F0"></path><path data-v-00c3a384="" d="M235.404 181.32a4.165 4.165 0 00-4.162-4.158h-9.769a4.165 4.165 0 00-4.161 4.158v.078a4.165 4.165 0 004.161 4.158h9.77a4.165 4.165 0 004.161-4.158z" fill="#FFFFFF"></path><path data-v-00c3a384="" d="M265.095 181.19a4.165 4.165 0 00-4.162-4.157h-16.367a4.165 4.165 0 00-4.161 4.158v.078a4.165 4.165 0 004.161 4.158h16.367a4.165 4.165 0 004.162-4.158z" fill="#EEEEEE"></path><path data-v-00c3a384="" d="M288.267 181.19a4.165 4.165 0 00-4.162-4.157h-9.85a4.165 4.165 0 00-4.161 4.158v.078a4.165 4.165 0 004.161 4.158h9.85a4.165 4.165 0 004.162-4.158z" fill="#A0AEC0"></path><g data-v-00c3a384="" fill="#4A5568"><path data-v-00c3a384="" d="M38.058 34.233a4.2 4.2 0 00-4.197-4.2 4.199 4.199 0 00-4.197 4.2 4.197 4.197 0 008.394 0zM38.058 55.233a4.2 4.2 0 00-4.197-4.2 4.199 4.199 0 00-4.197 4.2 4.197 4.197 0 008.394 0zM38.058 76.233a4.2 4.2 0 00-4.197-4.2 4.199 4.199 0 00-4.197 4.2 4.197 4.197 0 008.394 0zM38.058 97.233a4.2 4.2 0 00-4.197-4.2 4.199 4.199 0 00-4.197 4.2 4.197 4.197 0 008.394 0zM38.058 118.233a4.2 4.2 0 00-4.197-4.2 4.199 4.199 0 00-4.197 4.2 4.197 4.197 0 008.394 0zM38.058 139.233a4.2 4.2 0 00-4.197-4.2 4.199 4.199 0 00-4.197 4.2 4.197 4.197 0 008.394 0zM38.058 160.233a4.2 4.2 0 00-4.197-4.2 4.199 4.199 0 00-4.197 4.2 4.197 4.197 0 008.394 0zM38.058 181.233a4.2 4.2 0 00-4.197-4.2 4.199 4.199 0 00-4.197 4.2 4.197 4.197 0 008.394 0zM38.058 202.233a4.2 4.2 0 00-4.197-4.2 4.199 4.199 0 00-4.197 4.2 4.197 4.197 0 008.394 0zM38.058 223.233a4.2 4.2 0 00-4.197-4.2 4.199 4.199 0 00-4.197 4.2 4.197 4.197 0 008.394 0zM38.058 244.233a4.2 4.2 0 00-4.197-4.2 4.199 4.199 0 00-4.197 4.2 4.197 4.197 0 008.394 0z" fill="#4A5568"></path></g></svg>