<?xml version="1.0" encoding="UTF-8"?>
<!DOCTYPE svg PUBLIC "-//W3C//DTD SVG 1.1//EN" "http://www.w3.org/Graphics/SVG/1.1/DTD/svg11.dtd">
<svg xmlns="http://www.w3.org/2000/svg" version="1.1" width="169px" height="39px" style="shape-rendering:geometricPrecision; text-rendering:geometricPrecision; image-rendering:optimizeQuality; fill-rule:evenodd; clip-rule:evenodd" xmlns:xlink="http://www.w3.org/1999/xlink">
<g><path style="opacity:0.848" fill="#fefffe" d="M 10.5,-0.5 C 12.1667,-0.5 13.8333,-0.5 15.5,-0.5C 16.3149,0.836628 17.4815,1.83663 19,2.5C 19.7358,5.59197 19.5691,8.59197 18.5,11.5C 17.8333,11.5 17.5,11.8333 17.5,12.5C 16.5084,12.3284 15.8417,12.6618 15.5,13.5C 14.5084,13.3284 13.8417,13.6618 13.5,14.5C 12.834,17.3583 12.1674,20.3583 11.5,23.5C 10.2613,23.9424 9.26133,24.6091 8.5,25.5C 7.83333,25.5 7.5,25.8333 7.5,26.5C 4.62021,26.0598 1.95354,25.0598 -0.5,23.5C -0.5,20.5 -0.5,17.5 -0.5,14.5C 1.46641,13.5588 3.46641,12.5588 5.5,11.5C 6.16667,8.16667 6.83333,4.83333 7.5,1.5C 8.73867,1.05758 9.73867,0.390917 10.5,-0.5 Z"/></g>
<g><path style="opacity:0.804" fill="#fefffe" d="M 25.5,-0.5 C 26.8333,-0.5 28.1667,-0.5 29.5,-0.5C 30.8484,0.60064 32.3484,1.60064 34,2.5C 34.3333,5.5 34.6667,8.5 35,11.5C 36.6667,12.5 38.3333,13.5 40,14.5C 42.6145,21.9722 40.1145,25.9722 32.5,26.5C 32.5,25.8333 32.1667,25.5 31.5,25.5C 31.1583,24.6618 30.4916,24.3284 29.5,24.5C 27.3477,22.1882 25.3477,22.5215 23.5,25.5C 22.5084,25.3284 21.8417,25.6618 21.5,26.5C 20.5,26.5 19.5,26.5 18.5,26.5C 18.1583,25.6618 17.4916,25.3284 16.5,25.5C 16.5,24.8333 16.1667,24.5 15.5,24.5C 13.727,21.5118 13.0604,18.1785 13.5,14.5C 14.4916,14.6716 15.1583,14.3382 15.5,13.5C 16.4916,13.6716 17.1583,13.3382 17.5,12.5C 18.1667,12.5 18.5,12.1667 18.5,11.5C 19.5,11.5 20.5,11.5 21.5,11.5C 19.1508,6.02744 20.4841,2.02744 25.5,-0.5 Z M 21.5,11.5 C 23.674,11.7497 25.3406,12.7497 26.5,14.5C 24.326,14.2503 22.6594,13.2503 21.5,11.5 Z M 29.5,24.5 C 27.4352,24.5172 25.4352,24.8505 23.5,25.5C 25.3477,22.5215 27.3477,22.1882 29.5,24.5 Z"/></g>
<g><path style="opacity:0.663" fill="#fdfefd" d="M 138.5,10.5 C 139.15,10.8039 139.817,11.1373 140.5,11.5C 141.495,17.1278 141.829,22.7945 141.5,28.5C 139.833,28.5 138.167,28.5 136.5,28.5C 136.654,23.1647 136.654,17.9981 136.5,13C 137.056,11.9889 137.722,11.1556 138.5,10.5 Z"/></g>
<g><path style="opacity:0.772" fill="#fdfefd" d="M 106.5,11.5 C 107.833,11.5 109.167,11.5 110.5,11.5C 110.5,12.8333 110.5,14.1667 110.5,15.5C 112.5,15.5 114.5,15.5 116.5,15.5C 117.5,27.5 118.5,27.5 119.5,15.5C 120.833,15.5 122.167,15.5 123.5,15.5C 123.5,19.8333 123.5,24.1667 123.5,28.5C 120.228,28.0511 116.895,27.7178 113.5,27.5C 112.081,25.0415 111.081,22.3749 110.5,19.5C 109.516,22.4281 109.183,25.4281 109.5,28.5C 107.833,28.5 106.167,28.5 104.5,28.5C 104.665,25.4816 104.498,22.4816 104,19.5C 104.216,26.2892 101.05,29.1225 94.5,28C 90.5,24 90.5,20 94.5,16C 97.85,15.0701 100.683,15.9035 103,18.5C 103.653,15.8608 104.82,13.5274 106.5,11.5 Z"/></g>
<g><path style="opacity:0.783" fill="#fdfefd" d="M 85.5,12.5 C 87.1667,12.5 88.8333,12.5 90.5,12.5C 90.5,17.8333 90.5,23.1667 90.5,28.5C 87.0646,27.7762 83.7313,27.6096 80.5,28C 78.5125,26.6811 77.3459,24.8477 77,22.5C 73.7683,29.6493 69.4349,30.316 64,24.5C 62.1792,27.9907 59.3458,29.1574 55.5,28C 52.0093,26.1792 50.8426,23.3458 52,19.5C 53.8208,16.0093 56.6542,14.8426 60.5,16C 62.3333,16.5 63.5,17.6667 64,19.5C 69.4349,13.684 73.7683,14.3507 77,21.5C 78.0078,16.7818 80.6745,15.1151 85,16.5C 85.49,15.2068 85.6567,13.8734 85.5,12.5 Z M 56.5,20.5 C 59.1667,20.5 61.8333,20.5 64.5,20.5C 64.5,21.5 64.5,22.5 64.5,23.5C 62.2075,23.2436 60.0408,23.5769 58,24.5C 56.8118,23.4366 56.3118,22.1033 56.5,20.5 Z M 69.5,20.5 C 72.6741,20.9522 73.0075,21.9522 70.5,23.5C 68.4807,22.8671 68.1474,21.8671 69.5,20.5 Z M 82.5,20.5 C 83.5,20.5 84.5,20.5 85.5,20.5C 85.3352,24.8638 84.0019,25.3638 81.5,22C 82.056,21.6174 82.3893,21.1174 82.5,20.5 Z"/></g>
<g><path style="opacity:0.764" fill="#fdfefd" d="M 128.5,15.5 C 131.712,15.1058 134.046,16.2724 135.5,19C 135.095,19.9454 134.428,20.6121 133.5,21C 136.71,26.4796 135.043,28.8129 128.5,28C 126.5,27.3333 125.167,26 124.5,24C 125.5,23.6667 126.5,23.3333 127.5,23C 124.784,20.0807 125.118,17.5807 128.5,15.5 Z"/></g>
<g><path style="opacity:0.736" fill="#fdfefd" d="M 168.5,18.5 C 168.5,21.8333 168.5,25.1667 168.5,28.5C 166.833,28.5 165.167,28.5 163.5,28.5C 162.5,16.5 161.5,16.5 160.5,28.5C 158.833,28.5 157.167,28.5 155.5,28.5C 155.66,26.8008 155.494,25.1341 155,23.5C 151.819,29.2524 147.819,29.9191 143,25.5C 141.334,18.1699 144.167,15.0032 151.5,16C 153.049,17.214 154.215,18.714 155,20.5C 155.494,18.8659 155.66,17.1992 155.5,15.5C 158.32,15.9613 160.987,15.9613 163.5,15.5C 165.692,15.7573 167.359,16.7573 168.5,18.5 Z M 147.5,20.5 C 150.674,20.9522 151.007,21.9522 148.5,23.5C 146.481,22.8671 146.147,21.8671 147.5,20.5 Z"/></g>
<g><path style="opacity:0.824" fill="#fefffe" d="M 15.5,24.5 C 16.1667,24.5 16.5,24.8333 16.5,25.5C 16.8417,26.3382 17.5084,26.6716 18.5,26.5C 19.5,27.8333 20.5,27.8333 21.5,26.5C 22.4916,26.6716 23.1583,26.3382 23.5,25.5C 25.4352,24.8505 27.4352,24.5172 29.5,24.5C 29.8417,25.3382 30.5084,25.6716 31.5,25.5C 32.1667,25.5 32.5,25.8333 32.5,26.5C 34.4065,29.1562 34.9065,32.1562 34,35.5C 32.3484,36.3994 30.8484,37.3994 29.5,38.5C 27.8333,38.5 26.1667,38.5 24.5,38.5C 21.6132,34.7446 18.6132,34.7446 15.5,38.5C 13.8333,38.5 12.1667,38.5 10.5,38.5C 6.52167,35.4555 5.52167,31.4555 7.5,26.5C 8.16667,26.5 8.5,26.1667 8.5,25.5C 10.8056,25.0074 13.139,24.6741 15.5,24.5 Z"/></g>
</svg>
