<svg xmlns:xlink="http://www.w3.org/1999/xlink" data-v-00c3a384="" clip-rule="evenodd" fill-rule="evenodd" stroke-linejoin="round" stroke-miterlimit="2" viewBox="0 0 400 280" xmlns="http://www.w3.org/2000/svg" svg-inline="" role="presentation" focusable="false" tabindex="-1" width="400"  height="280" ><path data-v-00c3a384="" d="M0 0h400v280H0z" fill="#EDF2F7"></path><path data-v-00c3a384="" d="M39.664 40.001h320v240h-320z" fill="#FDFDFD"></path><g data-v-00c3a384="" fill="#718096"><path data-v-00c3a384="" d="M79.664 120.001h240v10h-240zM79.664 190.002h240v10h-240zM79.664 140.001h240v10h-240zM79.664 210.001h240v10h-240zM79.664 160.001H224.78v10H79.664zM79.664 230.002H224.78v10H79.664z" fill="#718096"></path></g><g data-v-00c3a384="" fill="#4A5568"><path data-v-00c3a384="" d="M79.664 80.001h20v20h-20zM109.664 80.001h70v20h-70zM189.664 80.001h90v20h-90zM139.663 120.001h180v10h-180zM79.664 140.001h180v10h-180z" fill="#4A5568"></path></g><path data-v-00c3a384="" d="M179.663 190.003h45v10h-45zM229.663 120.002h45v10h-45z" fill="#CBD5E0"></path></svg>