<svg xmlns:xlink="http://www.w3.org/1999/xlink" clip-rule="evenodd" fill-rule="evenodd" stroke-linejoin="round" stroke-miterlimit="2" viewBox="0 0 167 39" xmlns="http://www.w3.org/2000/svg" width="167"  height="39" ><path d="m4486.75 413.664c-.18.102-.28.29-.28.494v7.711c0 .204.1.392.28.494 1.16.67 5.52 3.186 6.68 3.855.18.102.39.102.57.001 1.44-.828 7.82-4.508 7.83-4.512.03-.016.06-.028.09-.038.58-.2.64-.167 1.19.106.01.005.02.01.03.015.34.197 6.87 3.971 6.88 3.976l.79.452c.17.102.39.102.57 0 1.15-.669 5.51-3.186 6.67-3.855.18-.102.29-.29.29-.494 0-1.34 0-6.372 0-7.711 0-.204-.11-.392-.29-.494-1.16-.67-5.52-3.186-6.67-3.856-.18-.101-.4-.101-.57 0-1.44.828-7.83 4.508-7.84 4.512-.03.015-.06.028-.09.037-.57.2-.64.168-1.18-.105-.01-.005-.02-.01-.03-.016-.33-.187-6.29-3.629-7.67-4.427-.18-.102-.39-.102-.57 0-2.23 1.285-4.45 2.57-6.68 3.855zm17.38-30.097c-.18.102-.29.29-.29.494v7.711c0 .203.11.392.29.494 1.42.821 7.68 4.435 7.68 4.435.64.424.68.519.72 1.227v.035 8.857c0 .204.11.392.29.494 1.16.67 5.51 3.186 6.67 3.856.18.102.4.102.57 0 1.16-.67 5.52-3.186 6.68-3.856.18-.102.29-.29.29-.494 0-1.339 0-6.371 0-7.711 0-.203-.11-.392-.29-.493-1.42-.821-7.67-4.429-7.68-4.436-.01-.004-.01-.008-.02-.012-.63-.413-.66-.513-.7-1.215 0-.011 0-.023 0-.035 0-.353 0-7.257 0-8.857 0-.204-.11-.392-.29-.494-1.16-.67-5.52-3.186-6.67-3.856-.18-.101-.4-.101-.57 0-2.23 1.286-4.46 2.571-6.68 3.856zm-17.38 0c-.18.102-.28.29-.28.493-.01 1.659-.02 9.032-.02 9.04 0 .032 0 .064-.01.095-.11.6-.17.641-.68.975-.01.006-.02.012-.03.018-.32.187-6.28 3.629-7.67 4.428-.17.101-.28.29-.28.493v8.041c2.32 1.34 4.64 2.68 6.96 4.02.18.102.39.102.57 0 1.65-.952 3.3-1.905 4.95-2.857 0 0 1.17-.678 1.73-.999.17-.102.28-.29.28-.493.01-1.659.01-9.032.01-9.04 0-.032.01-.064.02-.095.11-.6.17-.641.68-.975.01-.006.02-.012.03-.017.32-.188 6.28-3.63 7.67-4.428.17-.102.28-.291.28-.494 0-1.34 0-6.372 0-7.711 0-.204-.11-.392-.28-.494-1.16-.67-5.52-3.186-6.68-3.856-.18-.101-.39-.101-.57 0-2.23 1.286-4.45 2.571-6.68 3.856zm8.69 15.049c-.18.101-.29.29-.29.493v7.711c0 .204.11.392.29.494 1.16.67 5.52 3.186 6.68 3.856.17.102.39.102.57 0 1.16-.67 5.51-3.186 6.67-3.856.18-.102.29-.29.29-.494 0-1.339 0-6.371 0-7.711 0-.203-.11-.392-.29-.493-1.16-.67-5.51-3.186-6.67-3.856-.18-.102-.4-.102-.57 0-2.23 1.285-4.46 2.57-6.68 3.856z" fill="#fff" transform="matrix(.8188211 0 0 .8188211 -3666.503571 -310.853894)"/><g fill-rule="nonzero"><g fill="#fff"><path d="m.04-.493v.493h.122v-.26c0-.091.059-.125.123-.125.04 0 .063.011.088.032l.055-.106c-.027-.027-.076-.047-.127-.047-.05 0-.101.009-.139.07l-.009-.057z" transform="matrix(30.97549671 0 0 30.97549671 51.280495 27.029894)"/><path d="m.272-.503c-.157 0-.255.116-.255.257 0 .142.096.257.256.257s.257-.115.257-.257c0-.141-.101-.257-.258-.257zm.001.111c.082 0 .134.072.134.146 0 .075-.045.145-.134.145s-.134-.07-.134-.145c0-.074.046-.146.134-.146z" transform="matrix(30.97549671 0 0 30.97549671 64.725899 27.029894)"/><path d="m.272-.503c-.157 0-.255.116-.255.257 0 .142.096.257.256.257s.257-.115.257-.257c0-.141-.101-.257-.258-.257zm.001.111c.082 0 .134.072.134.146 0 .075-.045.145-.134.145s-.134-.07-.134-.145c0-.074.046-.146.134-.146z" transform="matrix(30.97549671 0 0 30.97549671 82.500446 27.029894)"/><path d="m.49 0v-.264c0-.065.041-.122.107-.122s.093.055.093.12v.266h.122v-.266c0-.148-.069-.234-.209-.234-.064 0-.121.02-.165.09-.028-.068-.087-.092-.146-.092-.047 0-.104.018-.13.068l-.009-.06h-.113v.494h.122v-.264c0-.065.039-.124.105-.124.067 0 .101.059.101.124v.264z" transform="matrix(30.97549671 0 0 30.97549671 100.283634 27.029894)"/></g><path d="m.037-.063c0 .095.144.095.144 0s-.144-.095-.144 0z" fill="rgba(255,255,255,0.5)" transform="matrix(30.97549671 0 0 30.97549671 128.038542 27.029894)"/><path d="m.43-.442c-.057-.05-.115-.065-.192-.065-.09 0-.208.04-.208.154 0 .112.111.146.204.153.07.004.098.018.098.052 0 .036-.043.06-.089.059-.055-.001-.135-.03-.17-.069l-.06.087c.072.075.15.088.228.088.141 0 .212-.075.212-.162 0-.131-.118-.152-.211-.158-.063-.004-.092-.022-.092-.054 0-.031.032-.049.09-.049.047 0 .087.011.122.044z" fill="rgba(255,255,255,0.5)" transform="matrix(30.97549671 0 0 30.97549671 135.530293 27.029894)"/><path d="m.04-.7v.7h.122v-.252c0-.074.05-.135.122-.135.065 0 .112.038.112.128v.259h.122v-.26c0-.145-.062-.24-.202-.24-.056 0-.11.017-.154.074v-.274z" fill="rgba(255,255,255,0.5)" transform="matrix(30.97549671 0 0 30.97549671 150.738462 27.029894)"/></g></svg>