<svg xmlns:xlink="http://www.w3.org/1999/xlink" data-v-00c3a384="" clip-rule="evenodd" fill-rule="evenodd" stroke-linejoin="round" stroke-miterlimit="2" viewBox="0 0 50 47" xmlns="http://www.w3.org/2000/svg" svg-inline="" role="presentation" focusable="false" tabindex="-1" width="245"  height="230" ><path data-v-00c3a384="" d="M9.195 33.993a1 1 0 00-.5.866v7.215a1 1 0 00.5.866c1.32.766 4.92 2.842 6.24 3.608.31.178.69.178 1 0 1.77-1.017 7.61-4.383 7.62-4.388a.583.583 0 01.09-.039c.57-.197.64-.166 1.18.101.01.009.03.017.05.027.43.251 6.86 3.964 6.87 3.97l.57.328c.31.179.69.179 1 0 1.33-.765 4.92-2.842 6.25-3.607a1 1 0 00.5-.866v-7.215a1 1 0 00-.5-.866c-1.33-.766-4.93-2.842-6.25-3.608a1.003 1.003 0 00-1 0c-1.77 1.017-7.61 4.383-7.62 4.388a.583.583 0 01-.09.039c-.57.197-.64.166-1.17-.101-.02-.009-.03-.018-.05-.027-.4-.229-5.76-3.328-7.45-4.298a.998.998 0 00-1 0l-6.24 3.607zm17.37-30.097a.998.998 0 00-.5.866v7.215a1 1 0 00.5.866c1.75 1.008 7.47 4.311 7.47 4.311.63.418.68.517.72 1.2v8.671c0 .357.19.688.5.866 1.33.766 4.92 2.842 6.25 3.608.31.178.69.178 1 0 1.32-.766 4.92-2.842 6.25-3.608.31-.178.5-.509.5-.866V19.81a1 1 0 00-.5-.866c-1.75-1.006-7.45-4.299-7.47-4.311-.01-.004-.01-.008-.02-.012-.62-.408-.66-.511-.7-1.188v-.064-8.607a.998.998 0 00-.5-.866c-1.33-.766-4.92-2.842-6.25-3.607a.998.998 0 00-1 0c-2.08 1.202-4.16 2.404-6.25 3.607zm-17.37 0a.977.977 0 00-.5.865c-.01 2.038-.02 8.782-.02 8.792 0 .033 0 .066-.01.099-.11.592-.17.637-.67.964-.02.011-.03.021-.05.03-.4.229-5.76 3.328-7.44 4.298a1 1 0 00-.5.866v7.793l6.75 3.896c.3.178.69.178 1 0 1.57-.911 3.15-1.822 4.73-2.733 0 0 .92-.531 1.51-.875.31-.179.5-.508.5-.865.01-2.038.01-8.782.01-8.792 0-.033.01-.066.02-.099.11-.592.17-.637.67-.964.01-.011.03-.02.05-.03.39-.229 5.76-3.328 7.44-4.298a1 1 0 00.5-.866V4.762a.998.998 0 00-.5-.866c-1.32-.766-4.92-2.842-6.25-3.608a1.003 1.003 0 00-1 0l-6.24 3.608zm8.68 15.048a1 1 0 00-.5.866v7.215c0 .357.19.688.5.866 1.33.766 4.93 2.842 6.25 3.608.31.178.69.178 1 0 1.33-.766 4.92-2.842 6.25-3.608.31-.178.5-.508.5-.866V19.81a1 1 0 00-.5-.866c-1.33-.765-4.92-2.841-6.25-3.607a.998.998 0 00-1 0c-2.08 1.203-4.16 2.405-6.25 3.607z" fill="#EDF2F7"></path></svg>