<svg xmlns:xlink="http://www.w3.org/1999/xlink" data-v-00c3a384="" clip-rule="evenodd" fill-rule="evenodd" stroke-linecap="round" stroke-linejoin="round" stroke-miterlimit="1.5" viewBox="0 0 400 280" xmlns="http://www.w3.org/2000/svg" svg-inline="" role="presentation" focusable="false" tabindex="-1" class="av-feed-image" width="400"  height="280" ><clipPath data-v-00c3a384="" id="a"><path data-v-00c3a384="" d="M180.773 221.698h323.184v211.004H180.773z"></path></clipPath><path data-v-00c3a384="" d="M-.002.005h400v280h-400z" fill="#CBD5E0"></path><g data-v-00c3a384="" clip-path="url(#a)" transform="matrix(1.23769 0 0 1.32699 -223.742 -294.186)"><path data-v-00c3a384="" d="M364.515 407.06c-24.994-8.03-49.024-5.432-59.582-.1s-26.324 15.598-38.608 9.095-29.947-8.67-30.004-37.58c-.084-28.909-.679-30.453-7.076-39.595s-11.661-22.723-.255-35.16c11.436-12.437 25.362-17.089 31.419-29.444 6.029-12.355 3.51-31.873 17.634-37.156s17.917 3.83 41.184 5.703 59.582 2.922 68.838 12.083c9.284 9.163 1.585 25.035 20.238 32.744 18.624 7.709 21.851 7.265 25.587 25.595 3.765 18.33-20.21 24.093-18.143 37.013s21.965 26.78 19.813 38.766c-2.18 11.983-9.737 19.452-23.748 21.537-14.039 2.086-26.351 3.234-47.297-3.5z" fill="#FFFFFF"></path><path data-v-00c3a384="" d="M340.979 280.19s-32.51 2.498-38.956 23.704c0 10.844 7.084 15.721.673 22.925-.728-.68 2.386-12.084-4.37-12.397-6.74-.312-15.026 12.71-1.858 22.071 0 3.182 11.765 26.877 29.03 27.169.82 9.8-6.338 18.588-23.439 22.86-17.12 4.273-22 8.582-22 8.582l72.94 26.6 43.655-22.956s-15.408-6.232-17.739-6.36c-6.192-.34-12.239.192-18.43-4.62-8.542-6.625-8.816-9.455-7.14-22.322 8.469-2.23 20.999-7.602 21.727-29.605.638-18.998-12.949-53.605-34.093-55.65z" fill="#A0AEC0"></path><g data-v-00c3a384="" fill="none" stroke="#2D3748"><circle data-v-00c3a384="" cx="2438.08" cy="888.095" r="10.598" stroke-width="1.66px" transform="matrix(-1.46285 0 0 1.3644 3934.04 -892.93)" stroke="#2D3748" fill="none"></circle><circle data-v-00c3a384="" cx="2438.08" cy="888.095" r="10.598" stroke-width="1.66px" transform="matrix(-1.46285 0 0 1.3644 3893.619 -892.93)" stroke="#2D3748" fill="none"></circle><path data-v-00c3a384="" d="M2448.68 888.095c0 5.85-4.75 10.599-10.6 10.599s-10.6-4.749-10.6-10.599" stroke-width="5.47px" transform="matrix(.44303 0 0 -.41321 -732.86 685.76)" stroke="#2D3748" fill="none"></path></g><path data-v-00c3a384="" d="M377.476 392.128s-1.693 16.596-22.037 16.094S299.4 387.21 299.4 387.21s-24.75 4.74-34.585 11.71c-9.817 6.968-29.25 36.36-29.25 36.36l206.82 2.251s-3.606-34.585-64.909-45.404z" fill="#1A202C"></path><path data-v-00c3a384="" d="M346.854 316.292l7.517 20.354-11.998-.84z" fill="#718096"></path></g></svg>