<svg xmlns:xlink="http://www.w3.org/1999/xlink" data-v-00c3a384="" clip-rule="evenodd" fill-rule="evenodd" stroke-linejoin="round" stroke-miterlimit="2" viewBox="0 0 400 280" xmlns="http://www.w3.org/2000/svg" svg-inline="" role="presentation" focusable="false" tabindex="-1" class="av-feed-image" width="400"  height="280" ><clipPath data-v-00c3a384="" id="a"><path data-v-00c3a384="" d="M180.773 221.698h323.184v211.004H180.773z"></path></clipPath><path data-v-00c3a384="" d="M-.002-.001h400v280h-400z" fill="#E2E8F0"></path><g data-v-00c3a384="" clip-path="url(#a)" transform="matrix(1.23769 0 0 1.32699 -223.742 -294.192)"><path data-v-00c3a384="" d="M340.382 364.384s-41.257-3.71-69.29 6.088c-21.191 7.406-47.967 18.646-59.776 23.693-3.835 1.647-6.677 4.815-7.736 8.627-4.69 16.855-17.62 63.348-17.62 63.348l311.245 4.864s17.707-54.17-66.118-91.194-90.705-15.426-90.705-15.426z" fill="#FFFFFF"></path><path data-v-00c3a384="" d="M326.946 379.548l2.905 47.84 19.077-47.3z" fill="#718096"></path><path data-v-00c3a384="" d="M403.6 328.78s3.923 15.793-15.917 21.72c-19.84 5.925-23.33 20.601-23.33 20.601s-46.719 6.54-55.516-1.383c-8.796-7.924-17.956-48.33-16.097-58.203 1.858-9.873 18.377-57.257 42.418-51.738 24.04 5.518 60.85 4.837 68.443 69.003z" fill="#A0AEC0"></path><path data-v-00c3a384="" d="M391.553 316.41l-17.181 30.576s-24.63-20.775-44.481-19.906c-19.853.868-28.159 9.448-28.159 9.448l-9.114-18.578s-5.846 55.285 8.5 63.935 70.645 13.701 77.067-6.78c6.42-20.483 6.32-39.547 12.855-42.973 6.535-3.428 23.847-7.904 24.746-14.235.903-6.332-9.579-17.653-9.579-17.653l11.727 3.614s-1.309-30.579-16.642-43.054c-15.333-12.477-18.757-18.754-18.757-18.754s-60.506-12.382-71.012 3.532 1.035 12.363-7.1 24.711c-8.133 12.347-9.343 32.526-9.343 32.526s17.325-43.462 44.327-32.366c27.004 11.096 31.314 11.178 31.314 11.178s12.063 24.248 20.832 34.78z" fill="#1A202C"></path><path data-v-00c3a384="" d="M349.754 347.09s-14.218-4.242-21.117-3.49c-6.9.753-16.918 3.054-16.918 3.054s-.487 7.549 15.558 10.536c16.047 2.985 22.477-10.1 22.477-10.1z" fill="#FFFFFF"></path><path data-v-00c3a384="" d="M330.734 296.646l-12.97 25.799 12.97 4.612z" fill="#718096"></path></g></svg>