<svg xmlns:xlink="http://www.w3.org/1999/xlink" data-v-00c3a384="" clip-rule="evenodd" fill-rule="evenodd" stroke-linecap="round" stroke-linejoin="round" stroke-miterlimit="1.5" viewBox="0 0 400 280" xmlns="http://www.w3.org/2000/svg" svg-inline="" role="presentation" focusable="false" tabindex="-1" width="400"  height="280" ><path data-v-00c3a384="" d="M0 0h400v280H0z" fill="#FFFFFF"></path><g data-v-00c3a384="" fill="none" stroke="#2D3748" stroke-width="9px"><path data-v-00c3a384="" d="M637.795 445.848c21.364-.335 31.332 1.874 31.332 1.874s-12.805 16.632-12.599 29.876" transform="matrix(1 0 0 1 -401.974 -381.616)" stroke="#2D3748" fill="none" stroke-width="9px"></path><path data-v-00c3a384="" d="M605.551 498.791c6.68-13.475 39.683-40.589 50.977-42.386" transform="matrix(1 0 0 1 -400.947 -385.84)" stroke="#2D3748" fill="none" stroke-width="9px"></path><path data-v-00c3a384="" d="M637.795 445.848c21.364-.335 31.332 1.874 31.332 1.874s-12.805 16.632-12.599 29.876" transform="rotate(-105 233.123 490.265)" stroke="#2D3748" fill="none" stroke-width="9px"></path><path data-v-00c3a384="" d="M605.551 498.791c6.68-13.475 39.683-40.589 50.977-42.386" transform="rotate(-105 230.989 491.982)" stroke="#2D3748" fill="none" stroke-width="9px"></path><path data-v-00c3a384="" d="M637.795 445.848c21.364-.335 31.332 1.874 31.332 1.874s-12.805 16.632-12.599 29.876" transform="rotate(63.298 702.048 44.136)" stroke="#2D3748" fill="none" stroke-width="9px"></path><path data-v-00c3a384="" d="M605.551 498.791c6.68-13.475 39.683-40.589 50.977-42.386" transform="rotate(63.298 704.959 47.08)" stroke="#2D3748" fill="none" stroke-width="9px"></path><path data-v-00c3a384="" d="M637.795 445.848c21.364-.335 31.332 1.874 31.332 1.874s-12.805 16.632-12.599 29.876" transform="matrix(-.24011 .97075 .97075 .24011 -208.872 -534.078)" stroke="#2D3748" fill="none" stroke-width="9px"></path><path data-v-00c3a384="" d="M605.551 498.791c6.68-13.475 39.683-40.589 50.977-42.386" transform="matrix(-.24011 .97075 .97075 .24011 -213.218 -534.093)" stroke="#2D3748" fill="none" stroke-width="9px"></path><path data-v-00c3a384="" d="M489.376 457.194c26.287 0 46.512 10.104 46.512 27.528s-21.342 31.57-47.628 31.57c-26.287 0-47.629-14.146-47.629-31.57s22.266-32.126 48.553-32.126" transform="matrix(1 0 0 1 -300.01 -324.177)" stroke="#2D3748" fill="none" stroke-width="9px"></path></g><g data-v-00c3a384="" fill="#718096"><path data-v-00c3a384="" d="M140.566 241.884a3.231 3.231 0 00-3.23-3.23H35.332a3.231 3.231 0 00-3.23 3.23v6.46a3.231 3.231 0 003.23 3.23h102.004a3.231 3.231 0 003.23-3.23zM362.975 220.545a3.231 3.231 0 00-3.23-3.23H257.741a3.231 3.231 0 00-3.23 3.23v6.46a3.231 3.231 0 003.23 3.23h102.004a3.231 3.231 0 003.23-3.23zM320.426 238.654a3.231 3.231 0 00-3.23-3.23h-59.454a3.231 3.231 0 00-3.23 3.23v6.46a3.231 3.231 0 003.23 3.23h59.454a3.231 3.231 0 003.23-3.23zM221.79 157.41a3.231 3.231 0 00-3.23-3.23h-59.453a3.231 3.231 0 00-3.23 3.23v6.46a3.231 3.231 0 003.23 3.23h59.454a3.231 3.231 0 003.23-3.23zM140.622 33.245a3.231 3.231 0 00-3.23-3.23H34.545a3.231 3.231 0 00-3.23 3.23v6.46a3.231 3.231 0 003.23 3.23h102.847a3.231 3.231 0 003.23-3.23zM115.319 51.677a3.23 3.23 0 00-3.23-3.23H34.544a3.231 3.231 0 00-3.23 3.23v6.46a3.231 3.231 0 003.23 3.23h77.545a3.23 3.23 0 003.23-3.23z" fill="#718096"></path></g><path data-v-00c3a384="" d="M568.753 613.157c11.964-6.72 28.954-7.531 53.038 0" fill="none" stroke="#2D3748" stroke-width="9px" transform="matrix(1 0 0 1 -407.022 -400.041)"></path></svg>